<?xml version="1.0" encoding="UTF-8"?>
<svg width="105px" height="100px" viewBox="0 0 105 100" version="1.1" xmlns="http://www.w3.org/2000/svg" xmlns:xlink="http://www.w3.org/1999/xlink">
    <!-- Generator: Sketch 57.1 (83088) - https://sketch.com -->
    <title>drone</title>
    <desc>Created with Sketch.</desc>
    <defs>
        <linearGradient x1="17.8775138%" y1="95.3942684%" x2="125.548675%" y2="-48.6331673%" id="linearGradient-1">
            <stop stop-color="#E75868" offset="0%"></stop>
            <stop stop-color="#FEBDC7" offset="100%"></stop>
        </linearGradient>
    </defs>
    <g id="Welcome" stroke="none" stroke-width="1" fill="none" fill-rule="evenodd">
        <g id="Desktop-HD" transform="translate(-122.000000, -864.000000)" fill="url(#linearGradient-1)" fill-rule="nonzero">
            <g id="Group-10" transform="translate(46.000000, 861.000000)">
                <g id="Group-5" transform="translate(0.000000, 3.000000)">
                    <g id="drone" transform="translate(76.000000, 0.000000)">
                        <path d="M100.577825,8.69589451 C102.995965,8.69589451 104.950495,6.74781667 104.950495,4.34754913 C104.950495,1.94807785 102.995965,0 100.577825,0 L83.0855416,0 C80.6674013,0 78.7128713,1.94807785 78.7128713,4.34754913 C78.7128713,6.74781667 80.6674013,8.69589451 83.0855416,8.69589451 L87.4590128,8.69589451 L87.4590128,17.3344692 C85.0576873,18.5827675 83.3922131,21.0435391 83.3922131,23.9127146 L83.3922131,25.0001991 L78.2140297,25.0001991 C74.8166227,25.0001991 71.720282,23.0393835 70.2862126,19.9783459 C67.1554415,13.3085478 60.3334031,8.69589451 52.4752475,8.69589451 C44.6170919,8.69589451 37.7950535,13.3085478 34.6642825,19.9783459 C33.2302131,23.0393835 30.1338724,25.0001991 26.7364654,25.0001991 L22.1708241,25.0001991 L22.1708241,23.9127146 C22.1708241,20.808687 20.2202976,18.2046159 17.4914822,17.0391129 L17.4914822,8.69589451 L21.8649534,8.69589451 C24.2830938,8.69589451 26.2376238,6.74781667 26.2376238,4.34754913 C26.2376238,1.94807785 24.2830938,0 21.8649534,0 L4.37267034,0 C1.95452997,0 0,1.94807785 0,4.34754913 C0,6.74781667 1.95452997,8.69589451 4.37267034,8.69589451 L8.74614154,8.69589451 L8.74614154,17.3344692 C6.344816,18.5827675 4.67934184,21.0435391 4.67934184,23.9127146 L4.67934184,32.6086091 C4.67934184,36.7826067 8.08956038,40.2170191 12.3317151,40.2170191 L14.5184507,40.2170191 C18.7165667,40.2170191 22.1708241,36.7826067 22.1708241,32.6086091 L22.1708241,31.5219209 L26.7404688,31.5219209 C30.1386767,31.5219209 33.2302131,33.4827363 34.668286,36.5437741 C37.1961236,41.9214876 42.1461049,45.9386518 48.1025772,47.2697455 L48.1025772,56.5213237 L47.8839835,56.5213237 C45.6972482,56.5213237 43.5977898,57.4344603 42.1549127,59.0871818 L38.0448746,63.6958546 C37.8262812,63.9561821 37.5196097,64.13053 37.1697,64.13053 L33.8899971,64.13053 C29.6918811,64.13053 26.2376238,67.5649425 26.2376238,71.73894 L26.2376238,92.3907937 C26.2376238,96.5647913 29.6918811,100 33.8899971,100 L71.060498,100 C75.2586139,100 78.7128713,96.5647913 78.7128713,92.3907937 L78.7128713,71.73894 C78.7128713,67.5649425 75.2586139,64.13053 71.060498,64.13053 L67.780795,64.13053 C67.4308853,64.13053 67.1242138,63.9561821 66.7310658,63.4777209 L62.7955823,59.0871818 C61.3527053,57.4344603 59.2532469,56.5213237 57.0665115,56.5213237 L56.8479179,56.5213237 L56.8479179,47.2697455 C62.8043902,45.9346714 67.7543715,41.9214876 70.2822091,36.5389973 C71.720282,33.4779597 74.8118183,31.5171441 78.2100262,31.5171441 L83.3922131,31.5171441 L83.3922131,32.6086091 C83.3922131,36.7826067 86.8024317,40.2170191 91.0445864,40.2170191 L93.231322,40.2170191 C97.429438,40.2170191 100.883695,36.7826067 100.883695,32.6086091 L100.883695,23.9127146 C100.883695,20.808687 98.9331689,18.2046159 96.2043535,17.0391129 L96.2043535,8.69589451 L100.577825,8.69589451 Z M63.4073238,80.4348345 C63.4073238,86.4343091 58.5101892,91.3041055 52.4752475,91.3041055 C46.4403059,91.3041055 41.5431712,86.4343091 41.5431712,80.4348345 C41.5431712,74.4345637 46.4403059,69.5647673 52.4752475,69.5647673 C58.5101892,69.5647673 63.4073238,74.4345637 63.4073238,80.4348345 Z" id="Shape"></path>
                    </g>
                </g>
            </g>
        </g>
    </g>
</svg>