<?xml version="1.0" encoding="UTF-8"?>
<svg width="50px" height="50px" viewBox="0 0 50 50" version="1.1" xmlns="http://www.w3.org/2000/svg" xmlns:xlink="http://www.w3.org/1999/xlink">
    <!-- Generator: Sketch 57.1 (83088) - https://sketch.com -->
    <title>earth-globe</title>
    <desc>Created with Sketch.</desc>
    <g id="Welcome" stroke="none" stroke-width="1" fill="none" fill-rule="evenodd">
        <g id="Desktop-HD-Copy-2" transform="translate(-315.000000, -1270.000000)" fill="#D8E6A9" fill-rule="nonzero">
            <g id="earth-globe" transform="translate(315.000000, 1270.000000)">
                <path d="M34.3981064,27.3573021 C34.678152,28.44183 31.6140052,28.0977639 30.8656591,29.1131187 C30.1168123,30.127983 28.2871696,29.4460648 27.8629288,29.2509741 C27.438688,29.0558834 25.8138223,29.7060768 25.9558478,28.6007807 C26.0970389,27.4951575 27.0855434,27.4302363 28.1456447,26.9751336 C29.2052454,26.5205215 30.7336471,25.0088545 29.9826308,24.8113109 C26.4466788,23.8819725 25.2403796,20.6272442 25.2403796,20.6272442 C25.0282592,20.5881607 25.0814979,18.3263837 24.1634221,18.2614625 C23.2445118,18.1962142 22.7496755,18.5214745 21.4078596,18.2614625 C20.0652092,18.0014505 20.3482589,17.1561664 20.1361385,15.3354286 C19.9245188,13.5146908 20.7019042,14.099963 21.1218058,13.5150178 C21.1585221,13.4636696 21.2062534,13.4178813 21.2529833,13.372093 C16.3366632,15.0214519 12.7906977,19.5919388 12.7906977,24.9609404 C12.7906977,24.9694439 12.7911984,24.9779474 12.7911984,24.986451 C13.7049349,25.0441769 15.3688534,25.233217 15.447126,25.847434 C15.5552724,26.6956616 15.447126,27.7559871 16.2046512,28.0740521 C16.9621764,28.392117 17.178636,26.8016288 17.827848,27.2258244 C18.4770599,27.65002 20.2085699,28.0583532 20.2085699,28.8082997 C20.2085699,29.5580826 19.8839639,30.7248658 20.2085699,30.9369636 C20.5331758,31.1490614 21.8309321,32.633419 21.8312659,32.8455168 C21.8317666,33.0576146 22.2887183,34.1360918 22.1523671,34.5483498 C22.0393809,34.8901265 21.469276,35.9514332 20.916528,36.4340088 C22.2787048,36.9340821 23.7521989,37.2093023 25.2904473,37.2093023 C32.1831087,37.2093023 37.7906977,31.71471 37.7906977,24.9609404 C37.7906977,22.9608107 37.2955275,21.0725352 36.4241817,19.4032257 C36.5077948,20.6488301 36.4513851,21.7838886 36.7297619,22.1557548 C37.9479104,23.7810748 33.7622458,24.8991262 34.3981064,27.3573021 Z" id="Path"></path>
                <path d="M24.9995,0 C11.1927239,0 0,11.1935 0,24.9995 C0,38.8055 11.1927239,50 24.9995,50 C38.8062761,50 50,38.8061667 50,24.9995 C50,11.1928333 38.8064428,0 24.9995,0 Z M25,40.077 C16.6865004,40.077 9.92269845,33.3138333 9.92269845,25 C9.92269845,16.6861667 16.6865004,9.923 25,9.923 C33.3134996,9.923 40.0773015,16.6861667 40.0773015,25 C40.0773015,33.3138333 33.3134996,40.077 25,40.077 Z" id="Shape"></path>
            </g>
        </g>
    </g>
</svg>