<?xml version="1.0" encoding="UTF-8"?>
<svg width="50px" height="50px" viewBox="0 0 50 50" version="1.1" xmlns="http://www.w3.org/2000/svg" xmlns:xlink="http://www.w3.org/1999/xlink">
    <!-- Generator: Sketch 57.1 (83088) - https://sketch.com -->
    <title>email</title>
    <desc>Created with Sketch.</desc>
    <g id="Welcome" stroke="none" stroke-width="1" fill="none" fill-rule="evenodd">
        <g id="Desktop-HD-Copy-2" transform="translate(-314.000000, -1088.000000)" fill="#AEDFE4" fill-rule="nonzero">
            <g id="email" transform="translate(314.000000, 1088.000000)">
                <path d="M24.9995833,0 C11.1928532,0 0,11.1931119 0,24.99975 C0,38.8060547 11.1928532,50 24.9995833,50 C38.8063134,50 50,38.8060547 50,24.99975 C50,11.1931119 38.8063134,0 24.9995833,0 Z M25.0000833,8.78108781 L39.7941632,18.0061801 L10.2060034,18.0061801 L25.0000833,8.78108781 Z M39.9784996,32.737494 L39.9769996,32.737494 C39.9769996,34.2171755 38.777813,35.4161875 37.2982883,35.4161875 L12.7018784,35.4161875 C11.222187,35.4161875 10.0231671,34.2170088 10.0231671,32.737494 L10.0231671,18.5931859 C10.0231671,18.4366844 10.0391673,18.2845162 10.0651678,18.1350147 L24.20007,26.9489362 C24.2174036,26.9597696 24.2359039,26.967103 24.2537376,26.9771031 C24.2724045,26.9874365 24.2914049,26.9974366 24.3104052,27.0069367 C24.4102402,27.0584373 24.5130752,27.0999377 24.6182436,27.1271046 C24.6290772,27.1301046 24.6399107,27.131438 24.6507442,27.133938 C24.7660794,27.1611049 24.8829147,27.1781051 24.9995833,27.1781051 L25.0004167,27.1781051 C25.00125,27.1781051 25.0020834,27.1781051 25.0020834,27.1781051 C25.118752,27.1781051 25.2355873,27.1616049 25.3509225,27.133938 C25.361756,27.1312713 25.3725895,27.1301046 25.3834231,27.1271046 C25.4884248,27.0999377 25.5909265,27.0584373 25.6912615,27.0069367 C25.7102618,26.9974366 25.7292622,26.9874365 25.7479291,26.9771031 C25.7655961,26.967103 25.7842631,26.9597696 25.8015967,26.9489362 L39.9364989,18.1350147 C39.9624994,18.2845162 39.9784996,18.436351 39.9784996,18.5931859 L39.9784996,32.737494 Z" id="Shape"></path>
            </g>
        </g>
    </g>
</svg>