<?xml version="1.0" encoding="UTF-8"?>
<svg width="122px" height="100px" viewBox="0 0 122 100" version="1.1" xmlns="http://www.w3.org/2000/svg" xmlns:xlink="http://www.w3.org/1999/xlink">
    <!-- Generator: Sketch 57.1 (83088) - https://sketch.com -->
    <title>romantic-dinner</title>
    <desc>Created with Sketch.</desc>
    <defs>
        <linearGradient x1="67.9682559%" y1="22.4350096%" x2="50.0478989%" y2="99.793231%" id="linearGradient-1">
            <stop stop-color="#F7BE35" offset="0%"></stop>
            <stop stop-color="#EC8A18" offset="100%"></stop>
        </linearGradient>
        <linearGradient x1="67.9682559%" y1="22.4350096%" x2="50%" y2="100%" id="linearGradient-2">
            <stop stop-color="#F7BE35" offset="0%"></stop>
            <stop stop-color="#EC8A18" offset="99.7334248%"></stop>
        </linearGradient>
        <linearGradient x1="136.792686%" y1="22.4350096%" x2="50%" y2="100%" id="linearGradient-3">
            <stop stop-color="#F7BE35" offset="0%"></stop>
            <stop stop-color="#EC8A18" offset="99.7334248%"></stop>
        </linearGradient>
    </defs>
    <g id="Welcome" stroke="none" stroke-width="1" fill="none" fill-rule="evenodd">
        <g id="Desktop-HD" transform="translate(-1042.000000, -861.000000)" fill-rule="nonzero">
            <g id="romantic-dinner" transform="translate(1042.000000, 861.000000)">
                <path d="M21.9999141,50.0001302 L5.49991406,50.0001302 L5.49991406,2.77785735 C5.49991406,1.24244468 4.26989062,0 2.74982812,0 C1.22976562,0 0,1.24244468 0,2.77785735 L0,97.2221427 C0,98.7575553 1.23002344,100 2.75008594,100 C4.27014844,100 5.49991406,98.7575553 5.49991406,97.2221427 L5.49991406,66.6667535 L27.4998281,66.6667535 L27.4998281,97.2221427 C27.4998281,98.7575553 28.7298516,100 30.2499141,100 C31.7699766,100 33,98.7575553 33,97.2221427 L33,63.8888961 L33,61.1110388 C33,54.9831901 28.0667578,50.0001302 21.9999141,50.0001302 Z" id="Path" fill="url(#linearGradient-1)"></path>
                <path d="M119.249936,0 C117.729885,0 116.499871,1.24244792 116.499871,2.77786458 L116.499871,50 L100,50 C93.9334615,50 89,54.9830729 89,61.1111979 L89,63.8888021 L89,97.2221354 C89,98.7575521 90.2300138,100 91.7500645,100 C93.2701151,100 94.5001289,98.7575521 94.5001289,97.2221354 L94.5001289,66.6666667 L116.499871,66.6666667 L116.499871,97.2221354 C116.499871,98.7575521 117.729885,100 119.249936,100 C120.769986,100 122,98.7575521 122,97.2221354 L122,2.77760417 C122,1.2421875 120.769986,0 119.249936,0 Z" id="Path" fill="url(#linearGradient-2)"></path>
                <path d="M94,44.8484692 L94,31.0607157 C94,29.5364701 92.7699814,28.3030616 91.2499248,28.3030616 L82.999957,28.3030616 C82.999957,26.778816 81.7699384,25.5454075 80.2498818,25.5454075 L77.2218859,25.5454075 C76.0524529,18.6201204 70.6085054,13.1805591 63.6947746,12.0306533 C63.7045715,11.9362928 63.7499463,11.8545998 63.7499463,11.7576541 C63.7499463,10.2344425 62.5186386,9 60.9998711,9 C59.4811036,9 58.2500537,10.2344425 58.2500537,11.7576541 C58.2500537,11.8545998 58.2954285,11.9362928 58.3052254,12.0306533 C51.3917524,13.1805591 45.9478049,18.6203789 44.7781141,25.5454075 L41.7501182,25.5454075 C40.2300616,25.5454075 39.000043,26.778816 39.000043,28.3030616 L30.7500752,28.3030616 C29.2300186,28.3030616 28,29.5364701 28,31.0607157 L28,44.8484692 C28,46.3727149 29.2300186,47.6061233 30.7500752,47.6061233 C33.6316343,47.6061233 34.9126996,48.5406803 36.6851536,49.8358755 C37.3637134,50.330428 38.1446244,50.847472 39.000043,51.3399564 L39.000043,97.2423459 C39.000043,98.7665916 40.2300616,100 41.7501182,100 C43.2701747,100 44.5001934,98.7665916 44.5001934,97.2423459 L44.5001934,52.9872586 C44.9590978,53.027588 45.3507135,53.121173 45.8591177,53.121173 C50.531951,53.121173 53.0296288,51.3006611 55.03566,49.8358755 C56.808114,48.5406803 58.0891793,47.6061233 60.9733165,47.6061233 C63.8657036,47.6061233 65.1493471,48.5432655 66.9272151,49.8384607 C68.9360823,51.3006611 71.4335022,53.121173 76.1117496,53.121173 C76.6309819,53.121173 77.0321366,53.0265539 77.5000645,52.9849319 L77.5000645,97.2423459 C77.5000645,98.7665916 78.7300831,100 80.2501396,100 C81.7701962,100 83.0002148,98.7665916 83.0002148,97.2423459 L83.0002148,51.3303911 C83.8489303,50.841009 84.6249429,50.3275843 85.2991199,49.8358755 C87.0767302,48.5406803 88.3603736,47.6061233 91.2499248,47.6061233 C92.7699814,47.6061233 94,46.3727149 94,44.8484692 Z" id="Path" fill="url(#linearGradient-3)"></path>
            </g>
        </g>
    </g>
</svg>