<?xml version="1.0" encoding="UTF-8"?>
<svg width="108px" height="100px" viewBox="0 0 108 100" version="1.1" xmlns="http://www.w3.org/2000/svg" xmlns:xlink="http://www.w3.org/1999/xlink">
    <!-- Generator: Sketch 57.1 (83088) - https://sketch.com -->
    <title>weightlifting</title>
    <desc>Created with Sketch.</desc>
    <defs>
        <linearGradient x1="50%" y1="0%" x2="50%" y2="100%" id="linearGradient-1">
            <stop stop-color="#05BFC8" offset="0%"></stop>
            <stop stop-color="#AEDFE4" offset="100%"></stop>
        </linearGradient>
        <linearGradient x1="50%" y1="0%" x2="50%" y2="100%" id="linearGradient-2">
            <stop stop-color="#05BFC8" offset="0%"></stop>
            <stop stop-color="#AEDFE4" offset="100%"></stop>
        </linearGradient>
    </defs>
    <g id="Welcome" stroke="none" stroke-width="1" fill="none" fill-rule="evenodd">
        <g id="Desktop-HD" transform="translate(-386.000000, -866.000000)" fill-rule="nonzero">
            <g id="Group-10" transform="translate(46.000000, 861.000000)">
                <g id="Group-6" transform="translate(265.000000, 5.000000)">
                    <g id="weightlifting" transform="translate(75.000000, 0.000000)">
                        <path d="M104.047011,17.8483697 L101.189627,17.8483697 C101.189627,12.5354252 101.189627,13.683375 101.189627,8.33705379 C101.189627,7.35348422 100.38762,6.55619835 99.3982272,6.55619835 L94.5041414,6.55619835 C93.5147483,6.55619835 92.7127418,7.35348422 92.7127418,8.33705379 C92.7127418,13.6835836 92.7127418,12.5347994 92.7127418,17.8483697 L86.4572175,17.8483697 C86.718048,15.124414 84.7002317,12.7392317 82.0268769,12.4582416 C79.2769306,12.1699504 76.8383862,14.1681716 76.5521652,16.859585 L76.4470356,17.8481611 L67.8251516,17.8481611 C65.2816875,23.3075459 59.7920772,26.8323338 53.7111393,26.8323338 C47.5464754,26.8323338 42.1034495,23.2274418 39.5971269,17.8481611 L31.0067189,17.8481611 L30.9015893,16.859585 C30.61306,14.1481455 28.1522726,12.1714106 25.4268776,12.458033 C22.7570901,12.7390231 20.7352869,15.1214935 20.996537,17.8485783 L14.7246452,17.8485783 C14.7246452,12.5356338 14.7246452,13.6835836 14.7246452,8.3372624 C14.7246452,7.35369283 13.9226387,6.55619835 12.9332457,6.55619835 L8.03915979,6.55619835 C7.04976671,6.55619835 6.24776027,7.35369283 6.24776027,8.3372624 C6.24776027,13.6837922 6.24776027,12.535008 6.24776027,17.8485783 L3.39079593,17.8485783 C1.5179787,17.8483697 0,19.3574137 0,21.2192076 C0,23.080793 1.5179787,24.5900455 3.39079593,24.5900455 L6.24797011,24.5900455 C6.24797011,29.9029901 6.24797011,28.7550402 6.24797011,34.1013615 C6.24797011,35.084931 7.05018639,35.8822169 8.03936963,35.8822169 L12.9334555,35.8822169 C13.9228486,35.8822169 14.724855,35.0847224 14.724855,34.1013615 C14.724855,28.7548316 14.724855,29.9036159 14.724855,24.5900455 L21.7106207,24.5900455 C21.9252865,26.6070411 23.4424258,40.8686956 23.6665344,42.9778943 C24.11664,47.2102682 29.4801368,48.9996765 32.3668983,45.7141578 L39.3642051,37.7536067 L39.3642051,56.6915452 L21.2588363,64.0041711 C19.1453332,64.8577802 17.6399449,66.7542024 17.2958082,68.9960735 L13.6836316,92.5374931 C13.1443442,96.0514336 15.5726065,99.3342404 19.1071424,99.8701451 C22.6416784,100.40605 25.9441319,97.9922886 26.4832095,94.4785567 L29.5409902,74.5520421 L46.2899567,67.7872112 L61.1579223,67.7872112 L77.9068888,74.5520421 L80.9646695,94.4785567 C81.5039569,97.9927058 84.8062006,100.40605 88.3407366,99.8701451 C91.8752725,99.3340318 94.303325,96.051225 93.7642474,92.5374931 L90.151861,68.9958649 C89.8077243,66.7539938 88.3023359,64.8577802 86.1888328,64.0039625 L67.9399338,56.6331359 L67.9399338,37.5838027 L75.0860168,45.7139492 C77.8957673,48.9110196 83.3232651,47.3268781 83.7863808,42.9776857 C84.0102795,40.8720333 85.528468,26.6032862 85.7427141,24.5898369 L92.7129517,24.5898369 C92.7129517,29.9027815 92.7129517,28.7548316 92.7129517,34.1011529 C92.7129517,35.0847224 93.5151679,35.8820083 94.5043512,35.8820083 L99.3984371,35.8820083 C100.38783,35.8820083 101.189837,35.0845138 101.189837,34.1011529 C101.189837,28.754623 101.189837,29.9034073 101.189837,24.5898369 L104.047221,24.5898369 C105.919828,24.5898369 107.438017,23.080793 107.438017,21.218999 C107.438017,19.3574137 105.919828,17.8483697 104.047011,17.8483697 Z M32.8560621,30.5231405 C32.5967513,28.1205167 32.48808,27.1162129 32.231405,24.7380165 L38.0165289,24.7380165 C35.9205518,27.0880121 34.9812345,28.1409722 32.8560621,30.5231405 Z M75.4086035,30.5231405 C73.0174297,27.8426799 76.0890155,31.2857521 70.2479339,24.7380165 L76.0330579,24.7380165 C75.548092,29.2302755 75.6675087,28.1236943 75.4086035,30.5231405 Z" id="Shape" fill="url(#linearGradient-1)"></path>
                        <circle id="Oval" fill="url(#linearGradient-2)" cx="53.3057851" cy="11.1570248" r="11.1570248"></circle>
                    </g>
                </g>
            </g>
        </g>
    </g>
</svg>