<?xml version="1.0" encoding="UTF-8"?>
<svg width="84px" height="100px" viewBox="0 0 84 100" version="1.1" xmlns="http://www.w3.org/2000/svg" xmlns:xlink="http://www.w3.org/1999/xlink">
    <!-- Generator: Sketch 57.1 (83088) - https://sketch.com -->
    <title>house</title>
    <desc>Created with Sketch.</desc>
    <defs>
        <linearGradient x1="50%" y1="0%" x2="50%" y2="100%" id="linearGradient-1">
            <stop stop-color="#D8E6A9" offset="0%"></stop>
            <stop stop-color="#B0C970" offset="100%"></stop>
        </linearGradient>
        <linearGradient x1="50%" y1="0%" x2="50%" y2="100%" id="linearGradient-2">
            <stop stop-color="#D8E6A9" offset="0%"></stop>
            <stop stop-color="#B0C970" offset="100%"></stop>
        </linearGradient>
        <linearGradient x1="50%" y1="0%" x2="50%" y2="100%" id="linearGradient-3">
            <stop stop-color="#D8E6A9" offset="0%"></stop>
            <stop stop-color="#B0C970" offset="100%"></stop>
        </linearGradient>
    </defs>
    <g id="Welcome" stroke="none" stroke-width="1" fill="none" fill-rule="evenodd">
        <g id="Desktop-HD" transform="translate(-664.000000, -861.000000)" fill-rule="nonzero">
            <g id="Group-10" transform="translate(46.000000, 861.000000)">
                <g id="Group-7" transform="translate(531.000000, 0.000000)">
                    <g id="house" transform="translate(87.000000, 0.000000)">
                        <path d="M26.0854939,58.6773026 C28.4468498,58.6773026 31.0461718,58.9048059 33.4190532,59.3350547 L33.4190532,52.3195895 L50.7071888,52.3195895 L50.7071888,64.8402996 C52.7410871,65.5773433 54.2261718,66.3722666 55.6204091,67.3719428 C58.26346,69.2669113 59.7160023,71.754392 59.803121,74.4827586 C63.1675278,73.6982069 66.2532905,72.3679818 68.92346,70.555985 C69.8882057,69.9015785 71.0461718,69.3288056 71.7241379,68.8373316 L71.7241379,49.3513408 L41.982782,16.5517241 L11.7241379,49.5490679 L11.7241379,61.341433 C13.7580362,60.8325616 15.6115956,60.2855501 17.7600701,59.7074241 C20.3010871,59.0239105 23.1210871,58.6773026 26.0854939,58.6773026 Z" id="Path" fill="url(#linearGradient-1)"></path>
                        <polygon id="Path" fill="url(#linearGradient-2)" points="41.6224697 8.59147763 75.1190257 46.2068966 82.7586207 46.2068966 41.5552632 0 24.5128299 18.8616756 24.5128299 11.2476979 12.0171394 11.2476979 12.0171394 32.7374228 0 46.2068966 7.7483413 46.2068966"></polygon>
                        <path d="M79.308657,72.800143 C77.4489586,72.800143 74.9454403,73.6178411 71.763914,75.7830656 C65.9478714,79.7411937 58.8282796,81.4841642 52.3230586,81.4841642 C47.0347316,81.4841642 42.1529386,80.3330195 38.7053543,78.2850878 C36.9973022,77.2703378 37.0023796,76.9315293 37.9931581,76.9315293 C39.9828391,76.9315293 45.9491741,78.2984927 49.9925119,78.2984927 C51.9821929,78.2984927 53.5057645,77.9677271 53.8622011,76.980122 C55.5096623,72.4130769 49.122915,70.9425607 42.4447224,68.2669452 C37.5554825,66.3071507 31.588132,64.8275862 25.9054569,64.8275862 C23.5363216,64.8275862 21.19562,65.0846249 19.023151,65.6710887 C9.15903167,68.3336345 2.03097753,70.3393408 0,70.9904832 L0,96.6206279 C4.06195506,95.1417337 8.767053,93.724502 11.4445584,93.724502 C16.35817,93.724502 36.2404245,100 47.4977945,100 C49.07451,100 50.4863779,99.8770102 51.6606214,99.5965129 C61.2153552,97.3129903 77.8033642,83.9379288 82.3057029,79.3715539 C84.46734,77.1791846 83.6122984,72.800143 79.308657,72.800143 Z" id="Path" fill="url(#linearGradient-3)"></path>
                    </g>
                </g>
            </g>
        </g>
    </g>
</svg>