<?xml version="1.0" encoding="UTF-8"?>
<svg width="95px" height="106px" viewBox="0 0 95 106" version="1.1" xmlns="http://www.w3.org/2000/svg" xmlns:xlink="http://www.w3.org/1999/xlink">
    <!-- Generator: Sketch 57.1 (83088) - https://sketch.com -->
    <title>idea</title>
    <desc>Created with Sketch.</desc>
    <defs>
        <linearGradient x1="15.5751655%" y1="39.6044155%" x2="60.7414061%" y2="53.2436814%" id="linearGradient-1">
            <stop stop-color="#AE8D3D" offset="0%"></stop>
            <stop stop-color="#E7D25C" offset="100%"></stop>
        </linearGradient>
        <linearGradient x1="-52.7054981%" y1="39.6044155%" x2="82.0466744%" y2="53.2436814%" id="linearGradient-2">
            <stop stop-color="#AE8D3D" offset="0%"></stop>
            <stop stop-color="#E7D25C" offset="100%"></stop>
        </linearGradient>
        <linearGradient x1="-52.7054981%" y1="49.8472641%" x2="82.0466744%" y2="50.0476574%" id="linearGradient-3">
            <stop stop-color="#AE8D3D" offset="0%"></stop>
            <stop stop-color="#E7D25C" offset="100%"></stop>
        </linearGradient>
        <linearGradient x1="48.3952266%" y1="39.6044155%" x2="50.5007293%" y2="53.2436814%" id="linearGradient-4">
            <stop stop-color="#AE8D3D" offset="0%"></stop>
            <stop stop-color="#E7D25C" offset="100%"></stop>
        </linearGradient>
        <linearGradient x1="46.6047769%" y1="39.6044155%" x2="51.0593942%" y2="53.2436814%" id="linearGradient-5">
            <stop stop-color="#AE8D3D" offset="0%"></stop>
            <stop stop-color="#E7D25C" offset="100%"></stop>
        </linearGradient>
        <linearGradient x1="-52.7054981%" y1="42.3624277%" x2="82.0466744%" y2="52.3831129%" id="linearGradient-6">
            <stop stop-color="#AE8D3D" offset="0%"></stop>
            <stop stop-color="#E7D25C" offset="100%"></stop>
        </linearGradient>
        <linearGradient x1="-52.7054981%" y1="48.9475545%" x2="82.0466744%" y2="50.3283892%" id="linearGradient-7">
            <stop stop-color="#AE8D3D" offset="0%"></stop>
            <stop stop-color="#E7D25C" offset="100%"></stop>
        </linearGradient>
        <linearGradient x1="-0.325694058%" y1="39.6044155%" x2="65.7028704%" y2="53.2436814%" id="linearGradient-8">
            <stop stop-color="#AE8D3D" offset="0%"></stop>
            <stop stop-color="#E7D25C" offset="100%"></stop>
        </linearGradient>
        <linearGradient x1="-52.7054981%" y1="48.2200188%" x2="82.0466744%" y2="50.5553985%" id="linearGradient-9">
            <stop stop-color="#AE8D3D" offset="0%"></stop>
            <stop stop-color="#E7D25C" offset="100%"></stop>
        </linearGradient>
        <linearGradient x1="-52.7054981%" y1="40.105333%" x2="82.0466744%" y2="53.0873826%" id="linearGradient-10">
            <stop stop-color="#AE8D3D" offset="0%"></stop>
            <stop stop-color="#E7D25C" offset="100%"></stop>
        </linearGradient>
    </defs>
    <g id="Welcome" stroke="none" stroke-width="1" fill="none" fill-rule="evenodd">
        <g id="Desktop-HD" transform="translate(-1204.000000, -864.000000)" fill-rule="nonzero">
            <g id="Group-10" transform="translate(46.000000, 861.000000)">
                <g id="Group-9" transform="translate(1061.000000, 3.000000)">
                    <g id="idea" transform="translate(97.000000, 0.000000)">
                        <path d="M68.9998837,83.6615833 C73.280679,90.4919864 73.8130059,94.2310831 73.0237573,95.0209811 C72.6485408,95.3974745 71.0718921,95.6244779 67.6949435,94.2273919 C67.5156529,95.5137445 66.9075434,96.6542982 66,97.5014085 C68.3049014,98.4813987 70.2918854,99 71.9165914,99 C73.4821499,99 74.7260943,98.5441476 75.6391828,97.6324429 C79.1547582,94.1221952 75.2251508,86.2822729 71.034925,80 C70.4619343,81.2734337 69.7743454,82.4915007 68.9998837,83.6615833 Z" id="Path" fill="url(#linearGradient-1)"></path>
                        <path d="M21.9793546,43.9907289 C22.7693306,43.1981295 26.5027538,43.7290041 33.3276289,48.0075559 C34.5042677,47.2205251 35.7290081,46.539298 37,45.9657307 C30.7116426,41.7688519 22.8766342,37.8411228 19.3633683,41.3679117 C16.3274182,44.4139436 18.6362943,50.9849082 23.5778073,58.5489423 L23.8812173,59 L25.0208549,56.9637435 C25.327965,56.4143069 25.660976,55.8852885 26.0032373,55.363695 C22.1532603,49.1528342 20.9877219,44.9856546 21.9793546,43.9907289 L21.9793546,43.9907289 Z" id="Path" fill="url(#linearGradient-2)"></path>
                        <path d="M62.1666667,91 L32.8333333,91 C31.8231667,91 31,91.898 31,93 C31,94.102 31.8231667,95 32.8333333,95 L62.1666667,95 C63.1768333,95 64,94.102 64,93 C64,91.898 63.1768333,91 62.1666667,91 Z" id="Path" fill="url(#linearGradient-3)"></path>
                        <circle id="Oval" fill="url(#linearGradient-2)" cx="48" cy="9" r="9"></circle>
                        <path d="M13,12 C11.898,12 11,12.8354946 11,13.8607897 L11,41.2088155 L13,44 L15,41.2088155 L15,13.8607897 C15,12.8354946 14.102,12 13,12 Z" id="Path" fill="url(#linearGradient-4)"></path>
                        <path d="M84,35 L84,14.8118926 C84,13.8135398 83.102,13 82,13 C80.898,13 80,13.8135398 80,14.8118926 L80,35 C80.644,34.847801 81.306,34.7427113 82,34.7427113 C82.694,34.7427113 83.356,34.847801 84,35 Z" id="Path" fill="url(#linearGradient-5)"></path>
                        <path d="M0,25 C0,26.654 1.17775,28 2.625,28 L7,28 L7,22 L2.625,22 C1.17775,22 0,23.346 0,25 Z" id="Path" fill="url(#linearGradient-6)"></path>
                        <path d="M46.1352772,106 L49.8647228,106 C54.3661638,106 58.1329039,102.98825 59,99 L37,99 C37.8670961,102.98825 41.6338362,106 46.1352772,106 Z" id="Path" fill="url(#linearGradient-7)"></path>
                        <path d="M82.5,39 C80.56975,39 79,40.6819801 79,42.7502344 C79,43.5565348 79.2485,44.3553347 79.7,44.9984999 L82.5,49 L85.3,45.000375 C85.7515,44.3553347 86,43.5565348 86,42.7502344 C86,40.6819801 84.43025,39 82.5,39 L82.5,39 Z" id="Path" fill="url(#linearGradient-8)"></path>
                        <path d="M92.375,22 L88,22 L88,28 L92.375,28 C93.82225,28 95,26.654 95,25 C95,23.346 93.82225,22 92.375,22 Z" id="Path" fill="url(#linearGradient-6)"></path>
                        <path d="M19,27.5598456 L32.59375,27.5598456 C36.091875,27.5598456 38.9375,30.4694981 38.9375,34.046332 L38.9375,46 C42.7020625,44.5322008 46.792875,43.9410039 50.889125,44.402471 C53.03875,44.645251 55.1068125,45.1752896 57.0625,45.9425483 L57.0625,34.046332 C57.0625,30.4694981 59.908125,27.5598456 63.40625,27.5598456 L77,27.5598456 L77,22 L19,22 L19,27.5598456 Z" id="Path" fill="url(#linearGradient-9)"></path>
                        <path d="M29,59.1393045 C32.2339142,63.7354893 36.7424032,69.1752777 42.7391137,75.1459546 C47.6986342,80.0821262 52.8444107,84.5055905 57.6651524,88 L60.542989,88 C60.9428915,87.5763801 61.3610543,87.1709413 61.8139118,86.8091372 C67.6353226,82.1493185 70.6519382,74.9277812 69.8813499,67.4953431 C68.8350299,57.3957359 60.7237668,49.2560526 50.5983834,48.1397324 C44.2583777,47.4433958 38.1813216,49.3651392 33.4792724,53.5577034 C31.6660162,55.1740042 30.1686646,57.0684759 29,59.1393045 Z M64.4507114,77.9003929 L61.1802765,76.2804559 C61.6915672,75.2568593 62.0805135,74.1696289 62.3361588,73.0514906 L65.8969339,73.8550957 C65.5773772,75.2586774 65.0916509,76.6186245 64.4507114,77.9003929 L64.4507114,77.9003929 Z M48.0894065,51.6377781 C58.1581828,51.6377781 66.3497915,59.7938245 66.3497915,69.818889 L62.6977145,69.818889 C62.6977145,61.799201 56.1440623,55.2740003 48.0894065,55.2740003 L48.0894065,51.6377781 Z" id="Shape" fill="url(#linearGradient-10)"></path>
                        <path d="M33.9569892,86.7450895 C34.4229391,87.1306562 34.8512545,87.5562345 35.2598566,88 L51,88 C47.2688172,84.9700276 43.437276,81.489015 39.718638,77.7133712 C35.0967742,73.0229158 30.6702509,67.906882 27.0770609,63 C26.3727599,65.1788157 26,67.4758475 26,69.812891 C26,76.405718 28.9014337,82.5784228 33.9569892,86.7450895 L33.9569892,86.7450895 Z" id="Path" fill="url(#linearGradient-2)"></path>
                    </g>
                </g>
            </g>
        </g>
    </g>
</svg>