<?xml version="1.0" encoding="UTF-8"?>
<svg width="50px" height="50px" viewBox="0 0 50 50" version="1.1" xmlns="http://www.w3.org/2000/svg" xmlns:xlink="http://www.w3.org/1999/xlink">
    <!-- Generator: Sketch 57.1 (83088) - https://sketch.com -->
    <title>cellphone</title>
    <desc>Created with Sketch.</desc>
    <g id="Welcome" stroke="none" stroke-width="1" fill="none" fill-rule="evenodd">
        <g id="Desktop-HD-Copy-2" transform="translate(-314.000000, -914.000000)" fill="#FEBDC7" fill-rule="nonzero">
            <g id="cellphone" transform="translate(314.000000, 914.000000)">
                <ellipse id="Oval" cx="25" cy="37.5" rx="1.74418605" ry="2.03488372"></ellipse>
                <path d="M30.3147173,11.627907 L19.6852827,11.627907 C19.0894478,11.627907 18.6046512,12.1010188 18.6046512,12.6814668 L18.6046512,33.2487657 C18.6046512,33.829713 19.0891227,34.3023256 19.6852827,34.3023256 L30.3147173,34.3023256 C30.9105522,34.3023256 31.3953488,33.8292138 31.3953488,33.2487657 L31.3953488,12.6814668 C31.3950237,12.1005195 30.9105522,11.627907 30.3147173,11.627907 Z" id="Path"></path>
                <path d="M24.9993333,0 C11.1927413,0 0,11.1935 0,24.9995 C0,38.8055 11.1927413,50 24.9993333,50 C38.8059254,50 50,38.8061667 50,24.9995 C50,11.1928333 38.8059254,0 24.9993333,0 Z M34.3023256,37.2092442 C34.3023256,39.135623 32.7751615,40.6976744 30.89144,40.6976744 L18.5271647,40.6976744 C16.6436075,40.6976744 15.1162791,39.1357911 15.1162791,37.2092442 L15.1162791,12.2093604 C15.1162791,10.2829816 16.6434431,8.72093023 18.5271647,8.72093023 L30.89144,8.72093023 C32.7749971,8.72093023 34.3023256,10.2828135 34.3023256,12.2093604 L34.3023256,37.2092442 Z" id="Shape"></path>
            </g>
        </g>
    </g>
</svg>