<?xml version="1.0" encoding="UTF-8"?>
<svg width="106px" height="99px" viewBox="0 0 106 99" version="1.1" xmlns="http://www.w3.org/2000/svg" xmlns:xlink="http://www.w3.org/1999/xlink">
    <!-- Generator: Sketch 57.1 (83088) - https://sketch.com -->
    <title>holding-hands-in-a-circle</title>
    <desc>Created with Sketch.</desc>
    <defs>
        <linearGradient x1="261.772912%" y1="0%" x2="-60.9731725%" y2="369.636303%" id="linearGradient-1">
            <stop stop-color="#E2B6EE" offset="0%"></stop>
            <stop stop-color="#C07FD9" offset="100%"></stop>
        </linearGradient>
        <linearGradient x1="261.772912%" y1="41.6050829%" x2="-60.9731725%" y2="103.666405%" id="linearGradient-2">
            <stop stop-color="#E2B6EE" offset="0%"></stop>
            <stop stop-color="#C07FD9" offset="100%"></stop>
        </linearGradient>
        <linearGradient x1="239.653118%" y1="0%" x2="-49.3819653%" y2="369.636303%" id="linearGradient-3">
            <stop stop-color="#E2B6EE" offset="0%"></stop>
            <stop stop-color="#C07FD9" offset="100%"></stop>
        </linearGradient>
        <linearGradient x1="239.722286%" y1="0%" x2="-49.4182106%" y2="369.636303%" id="linearGradient-4">
            <stop stop-color="#E2B6EE" offset="0%"></stop>
            <stop stop-color="#C07FD9" offset="100%"></stop>
        </linearGradient>
        <linearGradient x1="90.3397492%" y1="0%" x2="28.8611777%" y2="369.636303%" id="linearGradient-5">
            <stop stop-color="#E2B6EE" offset="0%"></stop>
            <stop stop-color="#C07FD9" offset="100%"></stop>
        </linearGradient>
        <linearGradient x1="90.3172305%" y1="0%" x2="28.8729779%" y2="369.636303%" id="linearGradient-6">
            <stop stop-color="#E2B6EE" offset="0%"></stop>
            <stop stop-color="#C07FD9" offset="100%"></stop>
        </linearGradient>
        <linearGradient x1="239.646088%" y1="0%" x2="-49.3782817%" y2="369.636303%" id="linearGradient-7">
            <stop stop-color="#E2B6EE" offset="0%"></stop>
            <stop stop-color="#C07FD9" offset="100%"></stop>
        </linearGradient>
        <linearGradient x1="239.667797%" y1="0%" x2="-49.3896576%" y2="369.636303%" id="linearGradient-8">
            <stop stop-color="#E2B6EE" offset="0%"></stop>
            <stop stop-color="#C07FD9" offset="100%"></stop>
        </linearGradient>
        <linearGradient x1="90.3272645%" y1="0%" x2="28.8677199%" y2="369.636303%" id="linearGradient-9">
            <stop stop-color="#E2B6EE" offset="0%"></stop>
            <stop stop-color="#C07FD9" offset="100%"></stop>
        </linearGradient>
    </defs>
    <g id="Welcome" stroke="none" stroke-width="1" fill="none" fill-rule="evenodd">
        <g id="Desktop-HD" transform="translate(-930.000000, -851.000000)" fill-rule="nonzero">
            <g id="holding-hands-in-a-circle" transform="translate(930.000000, 851.000000)">
                <g id="Group" transform="translate(41.860465, 0.000000)">
                    <circle id="Oval" fill="url(#linearGradient-1)" cx="10.7240388" cy="8.26046512" r="8.26046512"></circle>
                    <path d="M19.6193876,26.0534884 C18.6914806,21.4023256 14.2961318,18.2093023 9.52868992,18.8465116 C5.58450387,19.3697674 2.57520155,22.3581395 1.83334108,26.0534884 C4.32171318,24.2116279 7.40078294,23.1186047 10.7263643,23.1186047 C14.0519457,23.1186047 17.1263643,24.2139535 19.6193876,26.0534884 Z" id="Path" fill="url(#linearGradient-2)"></path>
                    <path d="M40.2124109,64.9511628 C38.3193876,63.2837209 35.4286899,63.4697674 33.7658992,65.3651163 L27.2542713,72.7604651 C25.5868295,74.6534884 25.772876,77.544186 27.6682248,79.2093023 C28.5356667,79.972093 29.6124109,80.3488372 30.6845039,80.3488372 C31.9519457,80.3488372 33.2124109,79.8209302 34.117062,78.7953488 L40.6240388,71.3976744 C42.2938062,69.5069767 42.1077597,66.6186047 40.2124109,64.9511628 Z" id="Path" fill="url(#linearGradient-3)"></path>
                    <path d="M34.1147364,21.9511628 C32.444969,20.0581395 29.5589225,19.872093 27.6682248,21.5395349 C25.7752015,23.2069767 25.5868295,26.0953488 27.2542713,27.9883721 L33.7658992,35.3860465 C34.6705504,36.4116279 35.9310155,36.9372093 37.2007829,36.9372093 C38.272876,36.9372093 39.3472946,36.5627907 40.217062,35.8 C42.1100853,34.1325581 42.2984574,31.244186 40.6286899,29.3511628 L34.1147364,21.9511628 Z" id="Path" fill="url(#linearGradient-4)"></path>
                    <g transform="translate(0.000000, 27.906977)">
                        <path d="M10.7658992,23.3604651 C10.7519457,23.3604651 10.6938062,23.3604651 10.6798527,23.3604651 C7.77055039,23.3604651 4.99613178,24.6790698 3.0565969,26.8534884 C1.11706201,29.0255814 0.1938062,31.955814 0.521713177,34.8488372 L5.21706201,65.1930233 C5.53799225,68.0511628 7.87752713,70.4116279 10.7240388,70.4116279 C13.5752015,70.4116279 15.9077597,68.0697674 16.2356667,65.2069767 L20.9263643,34.844186 C21.2565969,31.9534884 20.3310155,29.0209302 18.3914806,26.8488372 C16.4472946,24.6813953 13.6775271,23.3604651 10.7658992,23.3604651 Z" id="Path" fill="url(#linearGradient-5)"></path>
                        <circle id="Oval" fill="url(#linearGradient-1)" cx="10.7217132" cy="10.7116279" r="10.0697674"></circle>
                    </g>
                    <g transform="translate(44.186047, 16.279070)">
                        <path d="M9.81241085,21.0162791 C9.80078294,21.0162791 9.74962015,21.0162791 9.73566667,21.0162791 C7.08450387,21.0162791 4.55892248,22.2186047 2.79613178,24.1953488 C1.02868992,26.172093 0.189155037,28.8418605 0.486829456,31.4767442 L4.75892248,59.1 C5.05194573,61.7046512 7.18217829,63.8511628 9.77287597,63.8511628 C12.3658992,63.8511628 14.4938062,61.7186047 14.789155,59.1162791 L19.0589225,31.472093 C19.3565969,28.8395349 18.517062,26.172093 16.7519457,24.1953488 C14.9868295,22.2186047 12.4612481,21.0162791 9.81241085,21.0162791 Z" id="Path" fill="url(#linearGradient-6)"></path>
                        <circle id="Oval" fill="url(#linearGradient-1)" cx="9.77287597" cy="9.5" r="9.16744186"></circle>
                    </g>
                </g>
                <g id="Group" transform="translate(0.000000, 16.279070)">
                    <path d="M23.0938062,48.672093 C24.989155,47.0046512 27.8775271,47.1906977 29.5426434,49.0860465 L36.0519457,56.4813953 C37.7193876,58.3744186 37.5333411,61.2651163 35.6403178,62.9302326 C34.772876,63.6930233 33.6961318,64.0697674 32.6240388,64.0697674 C31.3565969,64.0697674 30.0961318,63.5418605 29.1914806,62.5162791 L22.6845039,55.1186047 C21.0147364,53.227907 21.1961318,50.3395349 23.0938062,48.672093 Z" id="Path" fill="url(#linearGradient-7)"></path>
                    <path d="M29.1868295,5.67209302 C30.8565969,3.77906977 33.7426434,3.59302326 35.6356667,5.26046512 C37.5286899,6.92790698 37.7147364,9.81627907 36.0472946,11.7093023 L29.5379922,19.1069767 C28.6333411,20.1325581 27.372876,20.6581395 26.1031085,20.6581395 C25.0310155,20.6581395 23.9565969,20.2837209 23.0868295,19.5209302 C21.1938062,17.8534884 21.0077597,14.9651163 22.6752015,13.072093 L29.1868295,5.67209302 Z" id="Path" fill="url(#linearGradient-8)"></path>
                    <g>
                        <path d="M9.30543411,21.0162791 C9.31706201,21.0162791 9.37055039,21.0162791 9.38450387,21.0162791 C12.0333411,21.0162791 14.5589225,22.2186047 16.3240388,24.1953488 C18.0914806,26.172093 18.9310155,28.8418605 18.6333411,31.4767442 L14.3589225,59.1 C14.0658992,61.7046512 11.9356667,63.8511628 9.34496899,63.8511628 C6.75194573,63.8511628 4.62403876,61.7186047 4.32868992,59.1162791 L0.058922479,31.472093 C-0.23875194,28.8395349 0.600782944,26.172093 2.36589922,24.1953488 C4.1310155,22.2186047 6.65427132,21.0162791 9.30543411,21.0162791 Z" id="Path" fill="url(#linearGradient-9)"></path>
                        <circle id="Oval" fill="url(#linearGradient-1)" cx="9.34729457" cy="9.5" r="9.16744186"></circle>
                    </g>
                </g>
            </g>
        </g>
    </g>
</svg>