<?xml version="1.0" encoding="UTF-8"?>
<svg width="925px" height="219px" viewBox="0 0 925 219" version="1.1" xmlns="http://www.w3.org/2000/svg" xmlns:xlink="http://www.w3.org/1999/xlink">
    <!-- Generator: Sketch 57.1 (83088) - https://sketch.com -->
    <title>shooting-star</title>
    <desc>Created with Sketch.</desc>
    <defs>
        <linearGradient x1="-9.77568671%" y1="48.9906145%" x2="68.6515036%" y2="50.3149534%" id="linearGradient-1">
            <stop stop-color="#AE8D3D" offset="0%"></stop>
            <stop stop-color="#E7D25C" offset="100%"></stop>
        </linearGradient>
        <linearGradient x1="-33.9313748%" y1="49.6683924%" x2="76.1886801%" y2="50.1034698%" id="linearGradient-2">
            <stop stop-color="#AE8D3D" offset="0%"></stop>
            <stop stop-color="#E7D25C" offset="100%"></stop>
        </linearGradient>
        <linearGradient x1="-1.28482212%" y1="48.9571528%" x2="66.0021423%" y2="50.3253943%" id="linearGradient-3">
            <stop stop-color="#AE8D3D" offset="0%"></stop>
            <stop stop-color="#E7D25C" offset="100%"></stop>
        </linearGradient>
        <linearGradient x1="-20.1005781%" y1="49.1408245%" x2="71.8731269%" y2="50.2680842%" id="linearGradient-4">
            <stop stop-color="#AE8D3D" offset="0%"></stop>
            <stop stop-color="#E7D25C" offset="100%"></stop>
        </linearGradient>
        <linearGradient x1="-40.3785502%" y1="49.7041881%" x2="78.2003595%" y2="50.0923007%" id="linearGradient-5">
            <stop stop-color="#AE8D3D" offset="0%"></stop>
            <stop stop-color="#E7D25C" offset="100%"></stop>
        </linearGradient>
        <linearGradient x1="-19.3595571%" y1="49.4674949%" x2="71.64191%" y2="50.1661549%" id="linearGradient-6">
            <stop stop-color="#AE8D3D" offset="0%"></stop>
            <stop stop-color="#E7D25C" offset="100%"></stop>
        </linearGradient>
        <linearGradient x1="-64.7100368%" y1="49.8330965%" x2="85.7923895%" y2="50.0520781%" id="linearGradient-7">
            <stop stop-color="#AE8D3D" offset="0%"></stop>
            <stop stop-color="#E7D25C" offset="100%"></stop>
        </linearGradient>
        <linearGradient x1="-52.7054981%" y1="49.5871047%" x2="82.0466744%" y2="50.1288336%" id="linearGradient-8">
            <stop stop-color="#AE8D3D" offset="0%"></stop>
            <stop stop-color="#E7D25C" offset="100%"></stop>
        </linearGradient>
    </defs>
    <g id="Welcome" stroke="none" stroke-width="1" fill="none" fill-rule="evenodd">
        <g id="Desktop-HD" transform="translate(-122.000000, -147.000000)" fill-rule="nonzero" stroke="#7A6024">
            <g id="shooting-star" transform="translate(582.500000, 270.500000) scale(1, -1) rotate(-78.000000) translate(-582.500000, -270.500000) translate(398.000000, -189.000000)">
                <path d="M30.0280324,140.914072 C40.541334,137.325862 51.3720926,133.736423 62.2137907,130.245607 C64.0354237,129.659233 65.1129531,128.949194 65.48151,128.20287 C66.1620402,126.824801 64.4125621,125.325109 60.4033106,124.264882 C54.2213887,122.62986 45.0119863,122.656773 39.8309428,124.324193 C28.8207852,127.869297 17.8246723,131.514284 7.14652601,135.15701 C2.1299124,136.868885 3.19088431,139.543891 9.50673956,141.134153 C15.8267194,142.723611 25.0119285,142.624914 30.0280324,140.914072 Z" id="Path" fill="url(#linearGradient-1)" transform="translate(34.802700, 132.660261) rotate(78.000000) translate(-34.802700, -132.660261) "></path>
                <path d="M-28.3269391,547.436686 C-76.5236376,558.74206 -122.985458,570.930876 -166.424573,583.664646 C-171.720204,585.216408 -171.269176,587.785904 -165.414736,589.40201 C-159.560296,591.018117 -150.522185,591.069752 -145.226051,589.516998 C-102.446742,576.976561 -56.6876941,564.972356 -9.21955701,553.837774 C74.4609003,534.207875 165.467575,516.791806 261.264027,502.074683 C357.274216,487.324431 459.203014,475.118263 564.212622,465.795362 C569.229972,465.35029 572.542406,464.156471 573.250953,462.762888 C573.582786,462.110235 573.342491,461.413923 572.439668,460.729842 C569.613854,458.585685 561.345192,457.379252 553.975564,458.033279 C447.33528,467.501261 343.829928,479.896659 246.333183,494.874274 C149.049669,509.819752 56.6449211,527.504291 -28.3269391,547.436686 Z" id="Path" fill="url(#linearGradient-2)" transform="translate(201.637152, 524.252060) rotate(78.000000) translate(-201.637152, -524.252060) "></path>
                <path d="M146.330384,250.295121 C79.7165609,267.077558 15.2411632,287.773343 -50.7835749,313.565115 C-55.2961968,315.32956 -53.6971364,317.918109 -47.2025371,319.34999 C-40.7074349,320.780866 -31.7816655,320.510217 -27.2660011,318.746996 C37.6457494,293.389764 100.895059,273.076995 166.095848,256.64945 C168.521225,256.03918 169.9529,255.223538 170.389872,254.35056 C170.984234,253.163149 169.722405,251.872407 166.573822,250.860674 C161.117662,249.106675 152.052324,248.852941 146.330384,250.295121 Z" id="Path" fill="url(#linearGradient-3)" transform="translate(58.592560, 284.814154) rotate(78.000000) translate(-58.592560, -284.814154) "></path>
                <path d="M118.867803,441.164344 C113.204465,442.671683 112.857254,445.444061 118.099008,447.354233 C123.337305,449.264164 132.176461,449.58915 137.840298,448.080736 C147.18491,445.592248 156.767639,443.098211 166.323912,440.668911 C168.896809,440.015342 170.426065,439.103476 170.881238,438.122067 C171.447586,436.900948 170.347251,435.572186 167.510043,434.494881 C162.389939,432.553262 153.563378,432.170338 147.786599,433.637562 C138.087404,436.1057 128.355338,438.637017 118.867803,441.164344 Z" id="Path" fill="url(#linearGradient-4)" transform="translate(142.704262, 440.887696) rotate(78.000000) translate(-142.704262, -440.887696) "></path>
                <path d="M117.434,709.675683 C88.4952205,715.186316 59.8323447,721.01487 32.2527931,726.999501 C26.1511538,728.323795 25.2766447,730.910691 30.2996735,732.779927 C35.3232078,734.648151 44.3415403,735.089385 50.4431796,733.76509 C77.6048594,727.871468 105.825576,722.131369 134.327761,716.70536 C234.316856,697.667613 342.194748,681.605598 454.962876,668.966956 C459.550602,668.45199 462.488598,667.291455 463.152248,665.96142 C463.527289,665.209793 463.174235,664.402488 461.983339,663.627723 C458.67839,661.48403 450.178842,660.398272 442.999768,661.203412 C328.501884,674.037457 218.963577,690.34618 117.434,709.675683 Z" id="Path" fill="url(#linearGradient-5)" transform="translate(245.166294, 697.733308) rotate(78.000000) translate(-245.166294, -697.733308) "></path>
                <path d="M-65.5717817,277.512563 C47.7386404,242.182393 186.554931,211.352679 347.019245,185.880034 C350.735856,185.289918 353.016875,184.258927 353.591375,183.115939 C354.050369,182.202753 353.419635,181.218535 351.569006,180.328052 C347.393232,178.324513 338.584481,177.560342 331.899225,178.622007 C169.000743,204.481083 28.0031881,235.80275 -87.1810891,271.716155 C-92.3338109,273.322922 -91.6778013,275.923488 -85.7078581,277.524068 C-79.7414481,279.124433 -70.7280367,279.119113 -65.5717817,277.512563 Z" id="Path" fill="url(#linearGradient-6)" transform="translate(131.540773, 228.432201) rotate(78.000000) translate(-131.540773, -228.432201) "></path>
                <path d="M455.145494,615.62385 C460.407367,615.212711 463.939383,613.964044 464.673937,612.484638 C464.982187,611.863815 464.79647,611.201578 464.038473,610.545403 C461.48212,608.322421 453.350952,606.993861 445.879487,607.577767 C335.510566,616.191575 227.497582,628.284547 124.83963,643.51964 C118.020265,644.532027 115.72814,647.024414 119.714535,649.08657 C123.700929,651.148725 132.458491,652.00211 139.277856,650.989722 C240.297562,635.996706 346.568107,624.098426 455.145494,615.62385 Z" id="Path" fill="url(#linearGradient-7)" transform="translate(291.286012, 629.428040) rotate(78.000000) translate(-291.286012, -629.428040) "></path>
                <path d="M349.462324,847.543593 C357.577265,846.967119 365.712155,846.409837 373.860017,845.871255 C379.332455,845.510234 383.086313,844.160036 383.841941,842.524436 C384.118524,841.925757 383.993916,841.291073 383.406847,840.65165 C381.211204,838.262566 373.377082,836.726448 365.909412,837.219491 C357.628003,837.766466 349.359068,838.333219 341.114069,838.918331 C333.677324,839.445791 329.515162,841.804534 331.825417,844.187228 C334.132185,846.569676 342.029068,848.071298 349.462324,847.543593 Z" id="Path" fill="url(#linearGradient-8)" transform="translate(357.584994, 842.388299) rotate(78.000000) translate(-357.584994, -842.388299) "></path>
            </g>
        </g>
    </g>
</svg>