<?xml version="1.0" encoding="UTF-8"?>
<svg width="461px" height="327px" viewBox="0 0 461 327" version="1.1" xmlns="http://www.w3.org/2000/svg" xmlns:xlink="http://www.w3.org/1999/xlink">
    <!-- Generator: Sketch 57.1 (83088) - https://sketch.com -->
    <title>youtube</title>
    <desc>Created with Sketch.</desc>
    <g id="Welcome" stroke="none" stroke-width="1" fill="none" fill-rule="evenodd">
        <g id="Desktop-HD" transform="translate(-916.000000, -77.000000)">
            <g id="youtube" transform="translate(916.000000, 77.000000)">
                <rect id="Rectangle" fill="#FFFFFF" x="126" y="75" width="212" height="184"></rect>
                <path d="M365.257,0.393 L95.744,0.393 C42.866,0.393 0,43.259 0,96.137 L0,230.865 C0,283.743 42.866,326.609 95.744,326.609 L365.257,326.609 C418.135,326.609 461.001,283.743 461.001,230.865 L461.001,96.137 C461.001,43.259 418.135,0.393 365.257,0.393 Z M300.506,170.056 L174.446,230.179 C171.087,231.781 167.207,229.332 167.207,225.611 L167.207,101.607 C167.207,97.833 171.189,95.387 174.555,97.093 L300.615,160.974 C304.363,162.873 304.298,168.248 300.506,170.056 Z" id="Shape" fill="#F61C0D" fill-rule="nonzero"></path>
            </g>
        </g>
    </g>
</svg>